Killzone Shadow Fall - Gameplay HD 

Youtube HD

MEDIAINFO: 

General 
Complete name: C:UsersLPKDesktopKillzone Shadow Fall Gameplay.mp4 
Format: MPEG-4 
Format profile: Base Media / Version 2 
Codec ID: mp42 
File size: 371 MiB 
Duration: 8mn 31s 
Overall bit rate mode: Variable 
Overall bit rate: 6 081 Kbps 
Encoded date: UTC 2013-02-20 19:10:34 
Tagged date: UTC 2013-02-20 19:10:34 
gshh:

Video 
ID: 1 
Format: AVC 
Format/Info: Advanced Video Codec 
Format profile: High@L4.0 
Format settings, CABAC: Yes 
Format settings, ReFrames: 1 frame 
Format settings, GOP: M=1, N=60 
Codec ID: avc1 
Codec ID/Info: Advanced Video Coding 
Duration: 8mn 31s 
Bit rate: 5 887 Kbps 
Maximum bit rate: 12.8 Mbps 
Width: 1 920 pixels 
Height: 1 080 pixels 
Display aspect ratio: 16:9 
Frame rate mode: Constant 
Frame rate: 29.970 fps 
Color space: YUV 
Chroma subsampling: 4:2:0 
Bit depth: 8 bits 
Scan type: Progressive 
Bits/(Pixel*Frame): 0.095 
Stream size: 359 MiB (97%) 
Tagged date: UTC 2013-02-20 19:11:07 

Audio 
ID: 2 
Format: AAC 
Format/Info: Advanced Audio Codec 
Format profile: LC 
Codec ID: 40 
Duration: 8mn 31s 
Bit rate mode: Variable 
Bit rate: 192 Kbps 
Maximum bit rate: 202 Kbps 
Channel(s): 2 channels 
Channel positions: Front: L R 
Sampling rate: 44.1 KHz 
Compression mode: Lossy 
Stream size: 11.7 MiB (3%) 
Title: IsoMedia File Produced by Google, 5-11-2011 
Encoded date: UTC 2013-02-20 19:10:57 
Tagged date: UTC 2013-02-20 19:11:07